<svg width="22" height="25" viewBox="0 0 22 25" fill="none" xmlns="http://www.w3.org/2000/svg">
<path d="M7.36772 24.2575C6.58171 24.2149 5.84206 23.8722 5.30147 23.3C4.65471 22.6778 4.07756 21.9871 3.58022 21.24C2.80331 20.1275 2.1892 18.9098 1.75647 17.6238C1.26672 16.2402 1.00908 14.7852 0.993966 13.3175C0.955919 11.8775 1.31254 10.4544 2.02522 9.20253C2.54718 8.30015 3.2917 7.5466 4.18772 7.01378C5.07382 6.48323 6.08499 6.19766 7.11772 6.18628C7.89624 6.23234 8.66128 6.41028 9.38022 6.71253C9.95397 6.96503 10.5565 7.14253 11.1752 7.24003C11.8577 7.09705 12.5247 6.88772 13.1665 6.61503C13.926 6.31845 14.7303 6.15236 15.5452 6.12378C15.654 6.12378 15.7615 6.12378 15.8652 6.13628C17.6527 6.18753 19.3152 7.06503 20.3652 8.51128C19.5458 8.94957 18.8639 9.60652 18.3954 10.4091C17.9269 11.2117 17.6902 12.1285 17.7115 13.0575C17.7033 13.7679 17.8458 14.472 18.1295 15.1234C18.4133 15.7747 18.8319 16.3585 19.3577 16.8363C19.8364 17.2922 20.3938 17.6577 21.0027 17.915C20.8777 18.29 20.734 18.6525 20.5815 19.0175C20.2352 19.8241 19.808 20.5935 19.3065 21.3138C18.8322 22.0354 18.2801 22.7027 17.6602 23.3038C17.0948 23.8649 16.341 24.1959 15.5452 24.2325C14.8707 24.2026 14.208 24.0444 13.5927 23.7663C12.9292 23.4772 12.2162 23.3189 11.4927 23.3C10.7488 23.3147 10.0147 23.4721 9.33022 23.7638C8.73902 24.0305 8.1074 24.1965 7.46147 24.255L7.36772 24.2575ZM11.3052 6.12378C11.2115 6.12378 11.1177 6.12378 11.024 6.11253C11.0042 5.96374 10.9938 5.81387 10.9927 5.66378C11.0336 4.4152 11.5216 3.22282 12.3677 2.30378C12.841 1.7756 13.4146 1.34686 14.0552 1.04253C14.6522 0.735222 15.3045 0.55035 15.974 0.498779C15.9927 0.662529 15.9927 0.822529 15.9927 0.975029C15.9751 2.20399 15.5134 3.38506 14.6927 4.30003C14.2954 4.83281 13.7862 5.27215 13.201 5.58721C12.6158 5.90227 11.9687 6.08541 11.3052 6.12378Z" fill="#111111"/>
</svg>
