<svg width="195" height="264" viewBox="0 0 195 264" fill="none" xmlns="http://www.w3.org/2000/svg">
<rect width="195" height="264" fill="#B9B9B9"/>
<g clip-path="url(#clip0_0_1)">
<rect width="1512" height="5625" transform="translate(-1317 -5326)" fill="white"/>
<circle r="47.6203" transform="matrix(-1 0 0 1 132 132)" fill="#111111"/>
<path fill-rule="evenodd" clip-rule="evenodd" d="M112.856 117.786C112.856 117.401 113.009 117.032 113.281 116.76C113.553 116.488 113.922 116.335 114.306 116.335H131.711C132.095 116.335 132.464 116.488 132.736 116.76C133.008 117.032 133.161 117.401 133.161 117.786C133.161 118.17 133.008 118.539 132.736 118.811C132.464 119.083 132.095 119.236 131.711 119.236H117.808L147.241 148.667C147.376 148.801 147.483 148.961 147.556 149.138C147.629 149.314 147.666 149.503 147.666 149.693C147.666 149.884 147.629 150.073 147.556 150.249C147.483 150.425 147.376 150.585 147.241 150.72C147.106 150.855 146.946 150.962 146.77 151.035C146.594 151.108 146.405 151.146 146.214 151.146C146.023 151.146 145.835 151.108 145.658 151.035C145.482 150.962 145.322 150.855 145.187 150.72L115.757 121.287V135.19C115.757 135.575 115.604 135.944 115.332 136.215C115.06 136.487 114.691 136.64 114.306 136.64C113.922 136.64 113.553 136.487 113.281 136.215C113.009 135.944 112.856 135.575 112.856 135.19V117.786Z" fill="white"/>
<path d="M146.403 25.3128H150.654L151.469 27.5317H152.458L149.05 18.3084H147.994L144.598 27.5317H145.588L146.403 25.3128ZM146.684 24.5375L148.528 19.4848L150.373 24.5375H146.684ZM141.907 21.8374C141.675 21.3472 141.31 20.9418 140.811 20.621C140.303 20.2912 139.701 20.1264 139.006 20.1264C138.347 20.1264 137.754 20.2823 137.229 20.5942C136.694 20.8972 136.279 21.3339 135.985 21.9042C135.682 22.4656 135.531 23.1206 135.531 23.8692C135.531 24.6177 135.682 25.2772 135.985 25.8475C136.279 26.4178 136.694 26.8589 137.229 27.1708C137.754 27.4827 138.347 27.6387 139.006 27.6387C139.693 27.6387 140.29 27.4783 140.798 27.1575C141.305 26.8277 141.675 26.4178 141.907 25.9277V30.9804H142.829V20.2333H141.907V21.8374ZM136.48 23.8692C136.48 23.2632 136.6 22.7419 136.841 22.3052C137.073 21.8596 137.393 21.521 137.803 21.2893C138.213 21.0576 138.677 20.9418 139.193 20.9418C139.693 20.9418 140.151 21.0621 140.57 21.3027C140.98 21.5433 141.305 21.8864 141.546 22.3319C141.787 22.7775 141.907 23.2944 141.907 23.8825C141.907 24.4707 141.787 24.9875 141.546 25.4331C141.305 25.8787 140.98 26.2218 140.57 26.4624C140.151 26.703 139.693 26.8233 139.193 26.8233C138.677 26.8233 138.213 26.7074 137.803 26.4757C137.393 26.2351 137.073 25.892 136.841 25.4465C136.6 24.992 136.48 24.4662 136.48 23.8692ZM132.619 21.8374C132.388 21.3472 132.022 20.9418 131.523 20.621C131.015 20.2912 130.414 20.1264 129.719 20.1264C129.059 20.1264 128.467 20.2823 127.941 20.5942C127.406 20.8972 126.992 21.3339 126.698 21.9042C126.395 22.4656 126.243 23.1206 126.243 23.8692C126.243 24.6177 126.395 25.2772 126.698 25.8475C126.992 26.4178 127.406 26.8589 127.941 27.1708C128.467 27.4827 129.059 27.6387 129.719 27.6387C130.405 27.6387 131.002 27.4783 131.51 27.1575C132.018 26.8277 132.388 26.4178 132.619 25.9277V30.9804H133.542V20.2333H132.619V21.8374ZM127.192 23.8692C127.192 23.2632 127.313 22.7419 127.553 22.3052C127.785 21.8596 128.106 21.521 128.516 21.2893C128.926 21.0576 129.389 20.9418 129.906 20.9418C130.405 20.9418 130.864 21.0621 131.283 21.3027C131.693 21.5433 132.018 21.8864 132.259 22.3319C132.499 22.7775 132.619 23.2944 132.619 23.8825C132.619 24.4707 132.499 24.9875 132.259 25.4331C132.018 25.8787 131.693 26.2218 131.283 26.4624C130.864 26.703 130.405 26.8233 129.906 26.8233C129.389 26.8233 128.926 26.7074 128.516 26.4757C128.106 26.2351 127.785 25.892 127.553 25.4465C127.313 24.992 127.192 24.4662 127.192 23.8692ZM123.319 17.6401V27.5317H124.254V17.6401H123.319ZM114.917 20.2333L119.248 30.9671H120.224L118.807 27.4916L121.801 20.2333H120.772L118.286 26.4624L115.88 20.2333H114.917Z" fill="#333333"/>
<path d="M44.7775 63.4631L47.0825 59.8915L49.389 60.4096L49.9254 59.5785L40.3274 57.4412L39.7548 58.3285L45.6634 66.1825L46.1998 65.3514L44.7775 63.4631ZM44.2783 62.8068L41.0331 58.5171L46.2788 59.707L44.2783 62.8068ZM39.4195 65.3561C38.882 65.285 38.3432 65.3722 37.8031 65.6175C37.2506 65.8655 36.7859 66.2815 36.409 66.8656C36.0515 67.4196 35.8612 68.0021 35.8381 68.613C35.8028 69.2266 35.945 69.8115 36.2647 70.3678C36.5721 70.9268 37.0403 71.4093 37.6693 71.8152C38.2982 72.2211 38.9345 72.4514 39.578 72.5061C40.2166 72.5682 40.8119 72.4592 41.3639 72.1791C41.9111 71.9065 42.3635 71.4931 42.721 70.939C43.0931 70.3625 43.2821 69.7739 43.288 69.1731C43.2864 68.5675 43.1425 68.0345 42.8563 67.5741L47.1017 70.3139L47.6019 69.5389L38.5719 63.7114L38.0717 64.4863L39.4195 65.3561ZM38.1839 71.0178C37.6747 70.6892 37.302 70.3054 37.0655 69.8665C36.8168 69.4302 36.7062 68.977 36.7338 68.507C36.7614 68.0369 36.9154 67.5847 37.1956 67.1505C37.4662 66.7312 37.8162 66.4108 38.2454 66.1893C38.6699 65.9754 39.1345 65.8881 39.6394 65.9276C40.1442 65.967 40.6437 66.1462 41.1379 66.4651C41.6321 66.784 42.0011 67.1654 42.245 67.6091C42.4889 68.0529 42.6008 68.5122 42.5807 68.9871C42.5558 69.4695 42.408 69.9204 42.1374 70.3397C41.8571 70.7739 41.5085 71.1005 41.0916 71.3193C40.6671 71.5332 40.2049 71.6167 39.7049 71.5698C39.1926 71.5255 38.6856 71.3415 38.1839 71.0178ZM34.3834 73.1597C33.846 73.0886 33.3072 73.1757 32.767 73.4211C32.2146 73.6691 31.7499 74.0851 31.373 74.6691C31.0154 75.2232 30.8251 75.8057 30.802 76.4166C30.7667 77.0301 30.9089 77.6151 31.2286 78.1714C31.5361 78.7304 32.0043 79.2129 32.6332 79.6188C33.2622 80.0247 33.8984 80.255 34.5419 80.3096C35.1805 80.3718 35.7759 80.2628 36.3279 79.9827C36.875 79.7101 37.3274 79.2967 37.685 78.7426C38.057 78.1661 38.246 77.5774 38.2519 76.9767C38.2503 76.3711 38.1064 75.8381 37.8202 75.3777L42.0657 78.1175L42.5658 77.3425L33.5358 71.515L33.0357 72.2899L34.3834 73.1597ZM33.1478 78.8214C32.6387 78.4928 32.2659 78.109 32.0295 77.6701C31.7807 77.2338 31.6702 76.7806 31.6978 76.3106C31.7254 75.8405 31.8793 75.3883 32.1595 74.954C32.4301 74.5347 32.7801 74.2144 33.2094 73.9929C33.6338 73.779 34.0984 73.6917 34.6033 73.7311C35.1081 73.7706 35.6076 73.9498 36.1018 74.2687C36.596 74.5876 36.965 74.9689 37.209 75.4127C37.4529 75.8565 37.5648 76.3158 37.5447 76.7907C37.5197 77.2731 37.3719 77.7239 37.1013 78.1432C36.8211 78.5775 36.4725 78.9041 36.0555 79.1228C35.6311 79.3368 35.1688 79.4203 34.6688 79.3734C34.1565 79.3291 33.6495 79.1451 33.1478 78.8214ZM25.8135 78.6986L34.1247 84.0623L34.632 83.2761L26.3208 77.9124L25.8135 78.6986ZM23.4368 87.1638L34.8039 89.3452L35.333 88.5253L31.6446 87.8313L27.1696 81.3797L26.6115 82.2445L30.4971 87.7112L23.9586 86.3552L23.4368 87.1638Z" fill="#333333"/>
<path d="M28.2165 165.9L26.5237 162.001L28.2343 160.369L27.8404 159.462L20.7376 166.261L21.1581 167.23L30.9706 166.671L30.5766 165.764L28.2165 165.9ZM27.3936 165.951L22.0242 166.271L25.9243 162.567L27.3936 165.951ZM26.8191 171.408C26.4618 171.815 26.2354 172.312 26.1398 172.898C26.0397 173.495 26.128 174.112 26.4048 174.75C26.6674 175.355 27.0465 175.836 27.542 176.194C28.0328 176.564 28.5984 176.77 29.2387 176.813C29.8743 176.867 30.5355 176.745 31.2221 176.447C31.9087 176.149 32.4533 175.748 32.8558 175.243C33.2618 174.746 33.5014 174.19 33.5746 173.575C33.6513 172.969 33.5583 172.363 33.2957 171.758C33.0224 171.129 32.6375 170.645 32.1409 170.307C31.6362 169.972 31.1129 169.796 30.5711 169.779L35.2058 167.767L34.8385 166.921L24.9804 171.201L25.3477 172.047L26.8191 171.408ZM30.8441 175.577C30.2883 175.818 29.7622 175.915 29.2658 175.868C28.7648 175.833 28.3265 175.674 27.9507 175.39C27.5749 175.107 27.2841 174.728 27.0782 174.253C26.8795 173.796 26.8071 173.327 26.861 172.847C26.9184 172.375 27.1036 171.94 27.4165 171.542C27.7294 171.144 28.1556 170.828 28.6951 170.593C29.2346 170.359 29.7566 170.264 30.2611 170.307C30.7657 170.35 31.2099 170.512 31.5939 170.792C31.9814 171.08 32.2745 171.453 32.4732 171.911C32.6791 172.385 32.7573 172.856 32.7081 173.325C32.6506 173.797 32.4637 174.228 32.1472 174.617C31.8262 175.019 31.3918 175.339 30.8441 175.577ZM30.5178 179.927C30.1605 180.335 29.9341 180.831 29.8386 181.417C29.7384 182.014 29.8268 182.632 30.1036 183.269C30.3662 183.874 30.7452 184.355 31.2407 184.714C31.7316 185.083 32.2972 185.29 32.9374 185.332C33.5731 185.386 34.2342 185.265 34.9208 184.966C35.6075 184.668 36.152 184.267 36.5545 183.762C36.9605 183.265 37.2001 182.709 37.2733 182.094C37.35 181.488 37.2571 180.882 36.9944 180.277C36.7212 179.648 36.3363 179.164 35.8397 178.826C35.335 178.491 34.8117 178.315 34.2698 178.298L38.9046 176.286L38.5373 175.44L28.6792 179.72L29.0465 180.566L30.5178 179.927ZM34.5429 184.096C33.987 184.337 33.4609 184.435 32.9646 184.388C32.4636 184.353 32.0252 184.193 31.6494 183.909C31.2736 183.626 30.9828 183.247 30.777 182.773C30.5782 182.315 30.5058 181.846 30.5597 181.366C30.6172 180.894 30.8023 180.459 31.1152 180.061C31.4281 179.663 31.8543 179.347 32.3938 179.113C32.9333 178.878 33.4553 178.783 33.9599 178.826C34.4644 178.869 34.9086 179.031 35.2926 179.311C35.6801 179.6 35.9732 179.973 36.172 180.43C36.3778 180.905 36.4561 181.376 36.4068 181.844C36.3494 182.316 36.1624 182.747 35.846 183.137C35.5249 183.538 35.0905 183.858 34.5429 184.096ZM30.3718 190.13L39.4452 186.191L39.0726 185.332L29.9992 189.272L30.3718 190.13ZM36.0964 196.804L44.2175 188.556L43.8288 187.661L41.2052 190.345L33.3548 190.489L33.7647 191.433L40.4687 191.233L35.7131 195.921L36.0964 196.804Z" fill="#333333"/>
<path d="M134.948 249.159L130.861 250.329L129.466 248.42L128.515 248.692L134.331 256.621L135.346 256.33L136.072 246.529L135.121 246.801L134.948 249.159ZM134.891 249.981L134.508 255.347L131.344 250.997L134.891 249.981ZM140.226 251.263C140.584 251.67 141.047 251.959 141.615 252.13C142.194 252.308 142.818 252.301 143.486 252.109C144.12 251.928 144.647 251.615 145.066 251.17C145.497 250.732 145.775 250.198 145.901 249.569C146.038 248.946 146.003 248.274 145.797 247.555C145.591 246.835 145.264 246.243 144.816 245.778C144.376 245.31 143.856 245 143.256 244.848C142.665 244.692 142.052 244.706 141.418 244.887C140.759 245.076 140.229 245.394 139.829 245.843C139.431 246.299 139.189 246.795 139.101 247.33L137.71 242.473L136.823 242.726L139.781 253.059L140.668 252.805L140.226 251.263ZM144.885 247.816C145.051 248.398 145.079 248.933 144.968 249.419C144.868 249.911 144.653 250.325 144.322 250.66C143.992 250.996 143.578 251.235 143.082 251.377C142.602 251.514 142.127 251.525 141.659 251.409C141.198 251.29 140.791 251.05 140.437 250.688C140.083 250.326 139.825 249.862 139.664 249.296C139.502 248.731 139.475 248.201 139.584 247.706C139.692 247.212 139.911 246.792 140.239 246.448C140.575 246.102 140.983 245.86 141.463 245.722C141.96 245.58 142.437 245.564 142.895 245.674C143.355 245.792 143.758 246.034 144.104 246.399C144.46 246.769 144.72 247.242 144.885 247.816ZM149.155 248.707C149.513 249.114 149.976 249.403 150.544 249.574C151.123 249.752 151.747 249.744 152.415 249.553C153.049 249.372 153.576 249.059 153.995 248.614C154.426 248.176 154.704 247.642 154.83 247.013C154.967 246.389 154.932 245.718 154.726 244.998C154.52 244.279 154.193 243.687 153.745 243.222C153.305 242.754 152.785 242.444 152.185 242.291C151.594 242.136 150.981 242.149 150.347 242.331C149.688 242.52 149.158 242.838 148.758 243.287C148.36 243.743 148.117 244.239 148.03 244.774L146.639 239.917L145.752 240.17L148.71 250.503L149.597 250.249L149.155 248.707ZM153.814 245.26C153.98 245.842 154.008 246.377 153.897 246.863C153.797 247.355 153.582 247.768 153.251 248.104C152.921 248.44 152.507 248.679 152.01 248.821C151.531 248.958 151.056 248.969 150.587 248.853C150.127 248.734 149.72 248.494 149.366 248.132C149.012 247.77 148.754 247.306 148.592 246.74C148.431 246.175 148.404 245.645 148.513 245.15C148.621 244.656 148.84 244.236 149.167 243.892C149.504 243.546 149.912 243.304 150.392 243.166C150.889 243.024 151.366 243.008 151.824 243.118C152.284 243.236 152.687 243.478 153.032 243.843C153.389 244.213 153.649 244.686 153.814 245.26ZM159.252 250.182L156.53 240.672L155.63 240.93L158.353 250.44L159.252 250.182ZM166.615 245.377L159.498 236.249L158.559 236.518L160.878 239.469L159.997 247.271L160.987 246.988L161.663 240.315L165.69 245.642L166.615 245.377Z" fill="#333333"/>
<circle r="131.582" transform="matrix(-1 0 0 1 132 132)" stroke="#447175" stroke-width="0.835443"/>
</g>
<defs>
<clipPath id="clip0_0_1">
<rect width="1512" height="5625" fill="white" transform="translate(-1317 -5326)"/>
</clipPath>
</defs>
</svg>
