<svg width="26" height="26" viewBox="0 0 26 26" fill="none" xmlns="http://www.w3.org/2000/svg">
<path d="M24.8202 10.6924C24.9739 11.5162 25.0577 12.3774 25.0577 13.2762C25.0577 20.3062 20.3527 25.3049 13.2464 25.3049C11.6304 25.3054 10.03 24.9875 8.5369 24.3693C7.04377 23.7511 5.68708 22.8447 4.54436 21.702C3.40164 20.5593 2.49528 19.2026 1.87707 17.7094C1.25886 16.2163 0.940914 14.616 0.941407 12.9999C0.940914 11.3839 1.25886 9.78358 1.87707 8.29044C2.49528 6.79731 3.40164 5.44062 4.54436 4.2979C5.68708 3.15518 7.04377 2.24882 8.5369 1.63061C10.03 1.0124 11.6304 0.694454 13.2464 0.694947C16.5689 0.694947 19.3452 1.91745 21.4752 3.90245L18.0064 7.3712V7.36245C16.7152 6.13245 15.0764 5.5012 13.2464 5.5012C9.18641 5.5012 5.88641 8.9312 5.88641 12.9924C5.88641 17.0524 9.18641 20.4899 13.2464 20.4899C16.9302 20.4899 19.4377 18.3837 19.9527 15.4912H13.2464V10.6924H24.8214H24.8202Z" fill="#111111"/>
</svg>
