<svg width="22" height="22" viewBox="0 0 22 22" fill="none" xmlns="http://www.w3.org/2000/svg">
<path d="M11 7.6154C9.13633 7.6154 7.61543 9.1363 7.61543 11C7.61543 12.8636 9.13633 14.3845 11 14.3845C12.8637 14.3845 14.3846 12.8636 14.3846 11C14.3846 9.1363 12.8637 7.6154 11 7.6154ZM21.1512 11C21.1512 9.59841 21.1639 8.20954 21.0852 6.81052C21.0064 5.18552 20.6357 3.74333 19.4475 2.55505C18.2566 1.36423 16.817 0.996068 15.192 0.917357C13.7904 0.838646 12.4016 0.851341 11.0025 0.851341C9.60097 0.851341 8.21211 0.838646 6.81308 0.917357C5.18808 0.996068 3.7459 1.36677 2.55762 2.55505C1.3668 3.74587 0.998631 5.18552 0.91992 6.81052C0.841209 8.21208 0.853905 9.60095 0.853905 11C0.853905 12.399 0.841209 13.7904 0.91992 15.1894C0.998631 16.8144 1.36933 18.2566 2.55762 19.4449C3.74844 20.6357 5.18808 21.0039 6.81308 21.0826C8.21465 21.1613 9.60351 21.1486 11.0025 21.1486C12.4041 21.1486 13.793 21.1613 15.192 21.0826C16.817 21.0039 18.2592 20.6332 19.4475 19.4449C20.6383 18.2541 21.0064 16.8144 21.0852 15.1894C21.1664 13.7904 21.1512 12.4015 21.1512 11ZM11 16.2076C8.11816 16.2076 5.79238 13.8818 5.79238 11C5.79238 8.11814 8.11816 5.79236 11 5.79236C13.8818 5.79236 16.2076 8.11814 16.2076 11C16.2076 13.8818 13.8818 16.2076 11 16.2076ZM16.4209 6.79529C15.748 6.79529 15.2047 6.25193 15.2047 5.57907C15.2047 4.90622 15.748 4.36286 16.4209 4.36286C17.0937 4.36286 17.6371 4.90622 17.6371 5.57907C17.6373 5.73885 17.606 5.89709 17.5449 6.04474C17.4839 6.19238 17.3943 6.32654 17.2813 6.43951C17.1684 6.55249 17.0342 6.64207 16.8866 6.70312C16.7389 6.76417 16.5807 6.79549 16.4209 6.79529Z" fill="#111111"/>
</svg>
