<svg width="58" height="58" viewBox="0 0 58 58" fill="none" xmlns="http://www.w3.org/2000/svg">
<path d="M38.4717 40.9875L43.3717 36.0875C44.0317 35.4357 44.8667 34.9895 45.7753 34.8031C46.684 34.6167 47.6272 34.6982 48.4905 35.0375L54.4623 37.4218C55.3347 37.776 56.0828 38.3804 56.6122 39.1589C57.1416 39.9375 57.4287 40.8554 57.4373 41.7968V52.7343C57.4323 53.3748 57.2976 54.0076 57.0415 54.5946C56.7855 55.1817 56.4132 55.7109 55.9473 56.1503C55.4813 56.5897 54.9312 56.9302 54.3302 57.1514C53.7291 57.3727 53.0895 57.47 52.4498 57.4375C10.603 54.8343 2.15921 19.3968 0.562335 5.83434C0.488207 5.16833 0.555936 4.49417 0.761066 3.85621C0.966195 3.21825 1.30408 2.63095 1.75248 2.13295C2.20089 1.63495 2.74965 1.23754 3.36268 0.966857C3.97571 0.696173 4.6391 0.558355 5.30921 0.562467H15.8748C16.8177 0.565258 17.7381 0.850052 18.5178 1.38022C19.2974 1.91039 19.9006 2.66168 20.2498 3.53747L22.6342 9.50934C22.9848 10.3692 23.0742 11.3132 22.8913 12.2236C22.7085 13.134 22.2615 13.9703 21.6061 14.6281L16.7061 19.5281C16.7061 19.5281 19.528 38.625 38.4717 40.9875Z" fill="#111111"/>
</svg>
