<svg width="30" height="31" viewBox="0 0 30 31" fill="none" xmlns="http://www.w3.org/2000/svg">
<path d="M15 0.483887C6.71552 0.483887 0 7.19941 0 15.4839C0 23.7684 6.71552 30.4839 15 30.4839C23.2845 30.4839 30 23.7684 30 15.4839C30 7.19941 23.2845 0.483887 15 0.483887ZM15 30.0127C6.97621 30.0127 0.471169 23.5077 0.471169 15.4839C0.471169 7.4601 6.97621 0.955056 15 0.955056C23.0238 0.955056 29.5288 7.4601 29.5288 15.4839C29.5288 23.5077 23.0238 30.0127 15 30.0127ZM15 2.19498C7.66089 2.19498 1.71109 8.14477 1.71109 15.4839C1.71109 22.823 7.66089 28.7728 15 28.7728C22.3391 28.7728 28.2889 22.823 28.2889 15.4839C28.2889 8.14477 22.3391 2.19498 15 2.19498V2.19498ZM15 28.2768C7.93488 28.2768 2.20706 22.5496 2.20706 15.4839C2.20706 8.41816 7.93488 2.69094 15 2.69094C22.0651 2.69094 27.7929 8.41877 27.7929 15.4839C27.7929 22.549 22.0651 28.2768 15 28.2768ZM26.2639 18.4192C25.9956 19.4522 25.5859 20.4432 25.0464 21.3641L20.5627 19.194L24.2813 22.5097C23.6376 23.3605 22.8805 24.1194 22.0312 24.7651L18.7167 21.0411L20.8869 25.5333C19.9677 26.0751 18.9778 26.4868 17.9456 26.7569L16.295 22.0107L16.5847 27.0266C16.0639 27.098 15.5323 27.1355 14.9921 27.1355C14.452 27.1355 13.9204 27.098 13.3996 27.0266L13.6875 22.0391L12.0454 26.7587C11.0129 26.489 10.0227 26.0779 9.10282 25.5369L11.276 21.0405L7.95726 24.7688C7.10775 24.1231 6.35035 23.3645 5.70605 22.5139L9.43125 19.1934L4.93972 21.3665C4.40001 20.4457 3.99009 19.4546 3.72157 18.4216L8.42964 16.7819L3.45605 17.0698C3.38589 16.5514 3.34839 16.0222 3.34839 15.4845C3.34839 14.9401 3.38649 14.4055 3.45847 13.8811L8.44113 14.1696L3.72702 12.5268C3.99741 11.4939 4.40917 10.5033 4.9506 9.58308L9.43972 11.7557L5.71875 8.43752C6.36442 7.58801 7.12304 6.83061 7.97359 6.18631L11.2857 9.90788L9.11855 5.42179C10.0387 4.88239 11.0289 4.47268 12.0611 4.20425L13.6863 8.87663L13.4014 3.94054C13.9222 3.86917 14.4532 3.83167 14.9933 3.83167C15.5335 3.83167 16.0645 3.86917 16.5853 3.94054L16.2986 8.90989L17.9347 4.20667C18.9792 4.47885 19.9669 4.89316 20.876 5.42663L18.7095 9.90969L22.0192 6.19175C22.8692 6.836 23.6271 7.59364 24.2716 8.44356L20.5548 11.7563L25.0379 9.58731C25.5788 10.5072 25.9899 11.4974 26.2597 12.5299L21.5534 14.169L26.5276 13.8817C26.5996 14.4055 26.6377 14.9401 26.6377 15.4839C26.6377 16.021 26.6008 16.5502 26.53 17.068L21.5631 16.7807L26.2639 18.4192V18.4192Z" fill="#447175"/>
</svg>
