<svg width="30" height="36" viewBox="0 0 30 36" fill="none" xmlns="http://www.w3.org/2000/svg">
<path d="M28.8633 4.63672L15.5898 0.113281C15.4297 0.0585937 15.2148 0.03125 15 0.03125C14.7852 0.03125 14.5703 0.0585937 14.4102 0.113281L1.13672 4.63672C0.8125 4.74609 0.546875 5.12109 0.546875 5.46484V24.3086C0.546875 24.6523 0.769531 25.1055 1.03906 25.3203L14.5039 35.8125C14.6406 35.918 14.8164 35.9727 14.9961 35.9727C15.1758 35.9727 15.3555 35.918 15.4883 35.8125L28.9531 25.3203C29.2227 25.1094 29.4453 24.6562 29.4453 24.3086V5.46484C29.4531 5.12109 29.1875 4.75 28.8633 4.63672V4.63672ZM19.4844 19.6406C17.5898 21.5352 14.6797 21.7969 12.5078 20.4258L9.48047 23.4531C9.42174 23.5113 9.34242 23.5439 9.25977 23.5439C9.17711 23.5439 9.0978 23.5113 9.03906 23.4531L7.71094 22.125C7.65278 22.0663 7.62016 21.987 7.62016 21.9043C7.62016 21.8216 7.65278 21.7423 7.71094 21.6836L10.7383 18.6562C9.36719 16.4805 9.62891 13.5742 11.5234 11.6797C13.7227 9.48047 17.2852 9.48047 19.4844 11.6797C21.6836 13.8789 21.6836 17.4414 19.4844 19.6406ZM13.2914 17.8723C13.5811 18.1666 13.9262 18.4006 14.3068 18.5608C14.6874 18.7211 15.096 18.8044 15.5089 18.8061C15.9219 18.8077 16.3311 18.7275 16.7129 18.5702C17.0948 18.4129 17.4417 18.1816 17.7337 17.8895C18.0257 17.5975 18.257 17.2506 18.4143 16.8687C18.5715 16.4869 18.6516 16.0777 18.65 15.6647C18.6484 15.2518 18.565 14.8432 18.4047 14.4626C18.2444 14.082 18.0103 13.737 17.716 13.4473C17.4263 13.153 17.0812 12.919 16.7006 12.7587C16.32 12.5984 15.9114 12.5151 15.4985 12.5135C15.0855 12.5119 14.6763 12.592 14.2945 12.7493C13.9126 12.9066 13.5657 13.138 13.2737 13.43C12.9817 13.722 12.7504 14.0689 12.5932 14.4508C12.4359 14.8326 12.3558 15.2418 12.3574 15.6548C12.3591 16.0678 12.4424 16.4763 12.6027 16.8569C12.763 17.2375 12.9971 17.5826 13.2914 17.8723V17.8723Z" fill="#447175"/>
</svg>
