<svg width="34" height="18" viewBox="0 0 34 18" fill="none" xmlns="http://www.w3.org/2000/svg">
<path d="M0.333252 0.666504V3.99984H6.99992V7.33317H3.66659C2.78253 7.33317 1.93468 7.68436 1.30956 8.30948C0.684441 8.9346 0.333252 9.78245 0.333252 10.6665V17.3332H10.3333V13.9998H3.66659V10.6665H6.99992C7.88397 10.6665 8.73182 10.3153 9.35694 9.69019C9.98206 9.06507 10.3333 8.21723 10.3333 7.33317V3.99984C10.3333 3.11578 9.98206 2.26794 9.35694 1.64281C8.73182 1.01769 7.88397 0.666504 6.99992 0.666504H0.333252ZM11.9999 0.666504V17.3332H15.3333V10.6665H20.3333V7.33317H15.3333V3.99984H21.9999V0.666504H11.9999ZM26.9999 0.666504C26.1159 0.666504 25.268 1.01769 24.6429 1.64281C24.0178 2.26794 23.6666 3.11578 23.6666 3.99984V17.3332H26.9999V12.3332H30.3333V17.3332H33.6666V3.99984C33.6666 3.11578 33.3154 2.26794 32.6903 1.64281C32.0652 1.01769 31.2173 0.666504 30.3333 0.666504H26.9999ZM26.9999 3.99984H30.3333V8.99984H26.9999V3.99984Z" fill="#447175"/>
</svg>
