<svg width="24" height="25" viewBox="0 0 24 25" fill="none" xmlns="http://www.w3.org/2000/svg">
<path d="M16.4999 4.25011C16.4998 3.37025 16.8091 2.51838 17.3736 1.84352C17.9382 1.16866 18.722 0.7138 19.5881 0.55851C20.4541 0.403221 21.3472 0.557395 22.111 0.994058C22.8749 1.43072 23.4608 2.12207 23.7664 2.94714C24.072 3.77222 24.0778 4.67847 23.7827 5.50736C23.4876 6.33625 22.9105 7.03499 22.1522 7.48132C21.394 7.92765 20.5029 8.09316 19.635 7.94888C18.7671 7.80461 17.9775 7.35974 17.4044 6.6921L7.32741 11.3721C7.55907 12.1063 7.55907 12.8939 7.32741 13.6281L17.4044 18.3081C18.0102 17.6036 18.8559 17.1491 19.7777 17.0326C20.6995 16.9161 21.6317 17.146 22.3937 17.6776C23.1557 18.2093 23.6931 19.0049 23.9019 19.9103C24.1107 20.8157 23.976 21.7663 23.5238 22.578C23.0716 23.3896 22.3342 24.0046 21.4545 24.3035C20.5748 24.6025 19.6154 24.5643 18.7623 24.1962C17.9092 23.8282 17.2231 23.1565 16.837 22.3114C16.4509 21.4663 16.3922 20.508 16.6724 19.6221L6.59541 14.9421C6.09656 15.5235 5.43163 15.9381 4.69008 16.1302C3.94852 16.3224 3.16591 16.2828 2.44752 16.0168C1.72913 15.7509 1.10942 15.2713 0.671771 14.6425C0.234118 14.0138 -0.000488281 13.2661 -0.000488281 12.5001C-0.000488281 11.7341 0.234118 10.9864 0.671771 10.3577C1.10942 9.72896 1.72913 9.24936 2.44752 8.98339C3.16591 8.71742 3.94852 8.67784 4.69008 8.86998C5.43163 9.06211 6.09656 9.47675 6.59541 10.0581L16.6724 5.37811C16.5577 5.01311 16.4995 4.6327 16.4999 4.25011Z" fill="#111111"/>
</svg>
